<svg xmlns="http://www.w3.org/2000/svg" xmlns:xlink="http://www.w3.org/1999/xlink" width="1090.641" height="316.222" viewBox="0 0 1090.641 316.222">
  <defs>
    <clipPath id="clip-path">
      <rect id="Rectangle_46" data-name="Rectangle 46" width="1090.641" height="316.222" fill="none"/>
    </clipPath>
  </defs>
  <g id="Group_26" data-name="Group 26" transform="translate(1090.641 316.222) rotate(180)">
    <g id="Group_25" data-name="Group 25" clip-path="url(#clip-path)">
      <path id="Path_75" data-name="Path 75" d="M799.945,74.749a19.377,19.377,0,1,1-19.377-19.377A19.377,19.377,0,0,1,799.945,74.749Z" transform="translate(290.005 21.096)" fill="none" stroke="#b08058" stroke-miterlimit="10" stroke-width="1"/>
      <path id="Path_76" data-name="Path 76" d="M765.354,63.158a19.377,19.377,0,1,1-19.377-19.377A19.377,19.377,0,0,1,765.354,63.158Z" transform="translate(276.827 16.68)" fill="none" stroke="#b08058" stroke-miterlimit="10" stroke-width="1"/>
      <path id="Path_77" data-name="Path 77" d="M730.015,54.17a19.377,19.377,0,1,1-19.377-19.378A19.377,19.377,0,0,1,730.015,54.17Z" transform="translate(263.363 13.255)" fill="none" stroke="#b08058" stroke-miterlimit="10" stroke-width="1"/>
      <path id="Path_78" data-name="Path 78" d="M694.542,45.65a19.377,19.377,0,1,1-19.377-19.378A19.377,19.377,0,0,1,694.542,45.65Z" transform="translate(249.848 10.009)" fill="none" stroke="#b08058" stroke-miterlimit="10" stroke-width="1"/>
      <path id="Path_79" data-name="Path 79" d="M658.652,39.225a19.377,19.377,0,1,1-19.377-19.378A19.377,19.377,0,0,1,658.652,39.225Z" transform="translate(236.174 7.561)" fill="none" stroke="#b08058" stroke-miterlimit="10" stroke-width="1"/>
      <path id="Path_80" data-name="Path 80" d="M622.617,33.535A19.377,19.377,0,1,1,603.24,14.158,19.377,19.377,0,0,1,622.617,33.535Z" transform="translate(222.445 5.394)" fill="none" stroke="#b08058" stroke-miterlimit="10" stroke-width="1"/>
      <path id="Path_81" data-name="Path 81" d="M586.453,28.884A19.377,19.377,0,1,1,567.076,9.507,19.377,19.377,0,0,1,586.453,28.884Z" transform="translate(208.667 3.622)" fill="none" stroke="#b08058" stroke-miterlimit="10" stroke-width="1"/>
      <path id="Path_82" data-name="Path 82" d="M550.118,25.61A19.377,19.377,0,1,1,530.741,6.233,19.377,19.377,0,0,1,550.118,25.61Z" transform="translate(194.824 2.375)" fill="none" stroke="#b08058" stroke-miterlimit="10" stroke-width="1"/>
      <path id="Path_83" data-name="Path 83" d="M513.783,22.337A19.377,19.377,0,1,1,494.406,2.96,19.377,19.377,0,0,1,513.783,22.337Z" transform="translate(180.981 1.128)" fill="none" stroke="#b08058" stroke-miterlimit="10" stroke-width="1"/>
      <path id="Path_84" data-name="Path 84" d="M477.322,21.187A19.377,19.377,0,1,1,457.945,1.809,19.377,19.377,0,0,1,477.322,21.187Z" transform="translate(167.089 0.689)" fill="none" stroke="#b08058" stroke-miterlimit="10" stroke-width="1"/>
      <path id="Path_85" data-name="Path 85" d="M440.856,20.12A19.377,19.377,0,1,1,421.479.743,19.377,19.377,0,0,1,440.856,20.12Z" transform="translate(153.196 0.283)" fill="none" stroke="#b08058" stroke-miterlimit="10" stroke-width="1"/>
      <path id="Path_86" data-name="Path 86" d="M404.389,19.877A19.377,19.377,0,1,1,385.012.5,19.377,19.377,0,0,1,404.389,19.877Z" transform="translate(139.303 0.19)" fill="none" stroke="#b08058" stroke-miterlimit="10" stroke-width="1"/>
      <path id="Path_87" data-name="Path 87" d="M367.923,20.945A19.377,19.377,0,1,1,348.546,1.568,19.377,19.377,0,0,1,367.923,20.945Z" transform="translate(125.41 0.597)" fill="none" stroke="#b08058" stroke-miterlimit="10" stroke-width="1"/>
      <path id="Path_88" data-name="Path 88" d="M331.457,22.012A19.377,19.377,0,1,1,312.08,2.634,19.377,19.377,0,0,1,331.457,22.012Z" transform="translate(111.516 1.004)" fill="none" stroke="#b08058" stroke-miterlimit="10" stroke-width="1"/>
      <path id="Path_89" data-name="Path 89" d="M295.1,24.866A19.377,19.377,0,1,1,275.72,5.489,19.377,19.377,0,0,1,295.1,24.866Z" transform="translate(97.664 2.091)" fill="none" stroke="#b08058" stroke-miterlimit="10" stroke-width="1"/>
      <path id="Path_90" data-name="Path 90" d="M258.762,28.139A19.377,19.377,0,1,1,239.385,8.762,19.377,19.377,0,0,1,258.762,28.139Z" transform="translate(83.82 3.338)" fill="none" stroke="#b08058" stroke-miterlimit="10" stroke-width="1"/>
      <path id="Path_91" data-name="Path 91" d="M222.53,32.241a19.377,19.377,0,1,1-19.377-19.377A19.377,19.377,0,0,1,222.53,32.241" transform="translate(70.016 4.901)" fill="#b08058"/>
      <path id="Path_92" data-name="Path 92" d="M186.495,37.931a19.377,19.377,0,1,1-19.377-19.377,19.377,19.377,0,0,1,19.377,19.377" transform="translate(56.287 7.069)" fill="#b08058"/>
      <path id="Path_93" data-name="Path 93" d="M150.478,43.713A19.377,19.377,0,1,1,131.1,24.336a19.377,19.377,0,0,1,19.377,19.377" transform="translate(42.565 9.272)" fill="#b08058"/>
      <path id="Path_94" data-name="Path 94" d="M115,52.233A19.377,19.377,0,1,1,95.628,32.856,19.377,19.377,0,0,1,115,52.233" transform="translate(29.05 12.518)" fill="#b08058"/>
      <path id="Path_95" data-name="Path 95" d="M79.532,60.754A19.377,19.377,0,1,1,60.155,41.377,19.377,19.377,0,0,1,79.532,60.754Z" transform="translate(15.536 15.764)" fill="none" stroke="#b08058" stroke-miterlimit="10" stroke-width="1"/>
      <path id="Path_96" data-name="Path 96" d="M44.874,72.113A19.377,19.377,0,1,1,25.5,52.736,19.377,19.377,0,0,1,44.874,72.113Z" transform="translate(2.331 20.092)" fill="none" stroke="#b08058" stroke-miterlimit="10" stroke-width="1"/>
      <path id="Path_97" data-name="Path 97" d="M796.968,109.549a19.377,19.377,0,1,1-19.377-19.377A19.377,19.377,0,0,1,796.968,109.549Z" transform="translate(288.871 34.355)" fill="none" stroke="#b08058" stroke-miterlimit="10" stroke-width="1"/>
      <path id="Path_98" data-name="Path 98" d="M762.366,97.99a19.377,19.377,0,1,1-19.377-19.377A19.377,19.377,0,0,1,762.366,97.99Z" transform="translate(275.688 29.951)" fill="none" stroke="#b08058" stroke-miterlimit="10" stroke-width="1"/>
      <path id="Path_99" data-name="Path 99" d="M727.187,88.444A19.377,19.377,0,1,1,707.81,69.066,19.377,19.377,0,0,1,727.187,88.444Z" transform="translate(262.285 26.313)" fill="none" stroke="#b08058" stroke-miterlimit="10" stroke-width="1"/>
      <path id="Path_100" data-name="Path 100" d="M691.712,79.935a19.377,19.377,0,1,1-19.377-19.377A19.378,19.378,0,0,1,691.712,79.935Z" transform="translate(248.77 23.072)" fill="none" stroke="#b08058" stroke-miterlimit="10" stroke-width="1"/>
      <path id="Path_101" data-name="Path 101" d="M655.888,73.179A19.377,19.377,0,1,1,636.511,53.8,19.378,19.378,0,0,1,655.888,73.179Z" transform="translate(235.121 20.498)" fill="none" stroke="#b08058" stroke-miterlimit="10" stroke-width="1"/>
      <path id="Path_102" data-name="Path 102" d="M619.85,67.509a19.377,19.377,0,1,1-19.377-19.377A19.378,19.378,0,0,1,619.85,67.509Z" transform="translate(221.391 18.338)" fill="none" stroke="#b08058" stroke-miterlimit="10" stroke-width="1"/>
      <path id="Path_103" data-name="Path 103" d="M583.7,62.741a19.377,19.377,0,1,1-19.377-19.377A19.377,19.377,0,0,1,583.7,62.741" transform="translate(207.618 16.521)" fill="#b08058"/>
      <path id="Path_104" data-name="Path 104" d="M547.364,59.485a19.377,19.377,0,1,1-19.377-19.377,19.377,19.377,0,0,1,19.377,19.377" transform="translate(193.775 15.281)" fill="#b08058"/>
      <path id="Path_105" data-name="Path 105" d="M511.027,56.23a19.377,19.377,0,1,1-19.378-19.377A19.377,19.377,0,0,1,511.027,56.23Z" transform="translate(179.931 14.041)" fill="none" stroke="#b08058" stroke-miterlimit="10" stroke-width="1"/>
      <path id="Path_106" data-name="Path 106" d="M474.564,55.111a19.377,19.377,0,1,1-19.377-19.377A19.377,19.377,0,0,1,474.564,55.111Z" transform="translate(166.039 13.614)" fill="none" stroke="#b08058" stroke-miterlimit="10" stroke-width="1"/>
      <path id="Path_107" data-name="Path 107" d="M438.1,54.051a19.377,19.377,0,1,1-19.377-19.377A19.377,19.377,0,0,1,438.1,54.051" transform="translate(152.146 13.21)" fill="#b08058"/>
      <path id="Path_108" data-name="Path 108" d="M401.631,53.97a19.377,19.377,0,1,1-19.377-19.377A19.377,19.377,0,0,1,401.631,53.97" transform="translate(138.252 13.18)" fill="#b08058"/>
      <path id="Path_109" data-name="Path 109" d="M365.165,55.03a19.377,19.377,0,1,1-19.377-19.378A19.377,19.377,0,0,1,365.165,55.03Z" transform="translate(124.359 13.583)" fill="none" stroke="#b08058" stroke-miterlimit="10" stroke-width="1"/>
      <path id="Path_110" data-name="Path 110" d="M328.7,56.09a19.377,19.377,0,1,1-19.377-19.377A19.377,19.377,0,0,1,328.7,56.09Z" transform="translate(110.465 13.987)" fill="none" stroke="#b08058" stroke-miterlimit="10" stroke-width="1"/>
      <path id="Path_111" data-name="Path 111" d="M292.356,59.236a19.377,19.377,0,1,1-19.377-19.375A19.377,19.377,0,0,1,292.356,59.236Z" transform="translate(96.619 15.187)" fill="none" stroke="#b08058" stroke-miterlimit="10" stroke-width="1"/>
      <path id="Path_112" data-name="Path 112" d="M256.019,62.493a19.377,19.377,0,1,1-19.377-19.377A19.378,19.378,0,0,1,256.019,62.493Z" transform="translate(82.775 16.427)" fill="none" stroke="#b08058" stroke-miterlimit="10" stroke-width="1"/>
      <path id="Path_113" data-name="Path 113" d="M219.847,67.077A19.377,19.377,0,1,1,200.47,47.7,19.377,19.377,0,0,1,219.847,67.077Z" transform="translate(68.994 18.173)" fill="none" stroke="#b08058" stroke-miterlimit="10" stroke-width="1"/>
      <path id="Path_114" data-name="Path 114" d="M183.808,72.747A19.377,19.377,0,1,1,164.431,53.37,19.378,19.378,0,0,1,183.808,72.747Z" transform="translate(55.264 20.333)" fill="none" stroke="#b08058" stroke-miterlimit="10" stroke-width="1"/>
      <path id="Path_115" data-name="Path 115" d="M147.942,79.287A19.377,19.377,0,1,1,128.565,59.91,19.377,19.377,0,0,1,147.942,79.287Z" transform="translate(41.599 22.825)" fill="none" stroke="#b08058" stroke-miterlimit="10" stroke-width="1"/>
      <path id="Path_116" data-name="Path 116" d="M112.467,87.8A19.377,19.377,0,1,1,93.09,68.419,19.377,19.377,0,0,1,112.467,87.8Z" transform="translate(28.083 26.067)" fill="none" stroke="#b08058" stroke-miterlimit="10" stroke-width="1"/>
      <path id="Path_117" data-name="Path 117" d="M77.221,97.11A19.377,19.377,0,1,1,57.844,77.733,19.377,19.377,0,0,1,77.221,97.11Z" transform="translate(14.655 29.615)" fill="none" stroke="#b08058" stroke-miterlimit="10" stroke-width="1"/>
      <path id="Path_118" data-name="Path 118" d="M42.619,108.669A19.377,19.377,0,1,1,23.242,89.292,19.377,19.377,0,0,1,42.619,108.669Z" transform="translate(1.472 34.019)" fill="none" stroke="#b08058" stroke-miterlimit="10" stroke-width="1"/>
      <path id="Path_119" data-name="Path 119" d="M793.749,145.482a19.377,19.377,0,1,1-19.377-19.377A19.377,19.377,0,0,1,793.749,145.482Z" transform="translate(287.645 48.045)" fill="none" stroke="#b08058" stroke-miterlimit="10" stroke-width="1"/>
      <path id="Path_120" data-name="Path 120" d="M759.384,133.236a19.378,19.378,0,1,1-19.377-19.377A19.379,19.379,0,0,1,759.384,133.236Z" transform="translate(274.552 43.379)" fill="none" stroke="#b08058" stroke-miterlimit="10" stroke-width="1"/>
      <path id="Path_121" data-name="Path 121" d="M724.5,122.746a19.377,19.377,0,1,1-19.377-19.377A19.377,19.377,0,0,1,724.5,122.746Z" transform="translate(261.261 39.383)" fill="none" stroke="#b08058" stroke-miterlimit="10" stroke-width="1"/>
      <path id="Path_122" data-name="Path 122" d="M689.018,114.248a19.377,19.377,0,1,1-19.377-19.377A19.377,19.377,0,0,1,689.018,114.248Z" transform="translate(247.743 36.145)" fill="none" stroke="#b08058" stroke-miterlimit="10" stroke-width="1"/>
      <path id="Path_123" data-name="Path 123" d="M653.263,107.15a19.377,19.377,0,1,1-19.377-19.377A19.377,19.377,0,0,1,653.263,107.15Z" transform="translate(234.121 33.441)" fill="none" stroke="#b08058" stroke-miterlimit="10" stroke-width="1"/>
      <path id="Path_124" data-name="Path 124" d="M617.221,101.5a19.377,19.377,0,1,1-19.377-19.377A19.377,19.377,0,0,1,617.221,101.5Z" transform="translate(220.389 31.288)" fill="none" stroke="#b08058" stroke-miterlimit="10" stroke-width="1"/>
      <path id="Path_125" data-name="Path 125" d="M581.086,96.609a19.377,19.377,0,1,1-19.377-19.377,19.377,19.377,0,0,1,19.377,19.377" transform="translate(206.622 29.425)" fill="#b08058"/>
      <path id="Path_126" data-name="Path 126" d="M544.749,93.372A19.378,19.378,0,1,1,525.372,74a19.378,19.378,0,0,1,19.377,19.377" transform="translate(192.778 28.191)" fill="#b08058"/>
      <path id="Path_127" data-name="Path 127" d="M508.411,90.135a19.378,19.378,0,1,1-19.377-19.377A19.378,19.378,0,0,1,508.411,90.135Z" transform="translate(178.934 26.958)" fill="none" stroke="#b08058" stroke-miterlimit="10" stroke-width="1"/>
      <path id="Path_128" data-name="Path 128" d="M471.946,89.038a19.377,19.377,0,1,1-19.377-19.377A19.377,19.377,0,0,1,471.946,89.038Z" transform="translate(165.041 26.54)" fill="none" stroke="#b08058" stroke-miterlimit="10" stroke-width="1"/>
      <path id="Path_129" data-name="Path 129" d="M435.48,87.987A19.377,19.377,0,1,1,416.1,68.61,19.378,19.378,0,0,1,435.48,87.987" transform="translate(151.148 26.14)" fill="#b08058"/>
      <path id="Path_130" data-name="Path 130" d="M399.013,88.058a19.377,19.377,0,1,1-19.377-19.377,19.377,19.377,0,0,1,19.377,19.377" transform="translate(137.255 26.167)" fill="#b08058"/>
      <path id="Path_131" data-name="Path 131" d="M362.546,89.109a19.377,19.377,0,1,1-19.378-19.377,19.377,19.377,0,0,1,19.378,19.377" transform="translate(123.361 26.567)" fill="#b08058"/>
      <path id="Path_132" data-name="Path 132" d="M326.091,90.353a19.377,19.377,0,1,1-19.377-19.377A19.377,19.377,0,0,1,326.091,90.353Z" transform="translate(109.472 27.041)" fill="none" stroke="#b08058" stroke-miterlimit="10" stroke-width="1"/>
      <path id="Path_133" data-name="Path 133" d="M289.753,93.589a19.377,19.377,0,1,1-19.377-19.375,19.377,19.377,0,0,1,19.377,19.375" transform="translate(95.628 28.275)" fill="#b08058"/>
      <path id="Path_134" data-name="Path 134" d="M253.415,96.828a19.377,19.377,0,1,1-19.377-19.377,19.377,19.377,0,0,1,19.377,19.377" transform="translate(81.783 29.508)" fill="#b08058"/>
      <path id="Path_135" data-name="Path 135" d="M217.3,101.882A19.377,19.377,0,1,1,197.923,82.5,19.377,19.377,0,0,1,217.3,101.882Z" transform="translate(68.024 31.434)" fill="none" stroke="#b08058" stroke-miterlimit="10" stroke-width="1"/>
      <path id="Path_136" data-name="Path 136" d="M181.258,107.531a19.377,19.377,0,1,1-19.377-19.377A19.377,19.377,0,0,1,181.258,107.531Z" transform="translate(54.292 33.586)" fill="none" stroke="#b08058" stroke-miterlimit="10" stroke-width="1"/>
      <path id="Path_137" data-name="Path 137" d="M145.541,114.822a19.377,19.377,0,1,1-19.377-19.377A19.377,19.377,0,0,1,145.541,114.822Z" transform="translate(40.684 36.364)" fill="none" stroke="#b08058" stroke-miterlimit="10" stroke-width="1"/>
      <path id="Path_138" data-name="Path 138" d="M110.062,123.319a19.377,19.377,0,1,1-19.377-19.377A19.378,19.378,0,0,1,110.062,123.319Z" transform="translate(27.167 39.601)" fill="none" stroke="#b08058" stroke-miterlimit="10" stroke-width="1"/>
      <path id="Path_139" data-name="Path 139" d="M75.251,134.063a19.377,19.377,0,1,1-19.377-19.377A19.377,19.377,0,0,1,75.251,134.063Z" transform="translate(13.905 43.694)" fill="none" stroke="#b08058" stroke-miterlimit="10" stroke-width="1"/>
      <path id="Path_140" data-name="Path 140" d="M40.886,146.309a19.377,19.377,0,1,1-19.377-19.377A19.377,19.377,0,0,1,40.886,146.309Z" transform="translate(0.812 48.36)" fill="none" stroke="#b08058" stroke-miterlimit="10" stroke-width="1"/>
      <path id="Path_141" data-name="Path 141" d="M790.645,180.538a19.377,19.377,0,1,1-19.378-19.378A19.377,19.377,0,0,1,790.645,180.538Z" transform="translate(286.462 61.4)" fill="none" stroke="#b08058" stroke-miterlimit="10" stroke-width="1"/>
      <path id="Path_142" data-name="Path 142" d="M756.348,168.152a19.377,19.377,0,1,1-19.377-19.377A19.377,19.377,0,0,1,756.348,168.152Z" transform="translate(273.396 56.682)" fill="none" stroke="#b08058" stroke-miterlimit="10" stroke-width="1"/>
      <path id="Path_143" data-name="Path 143" d="M721.653,157.007a19.377,19.377,0,1,1-19.377-19.377A19.377,19.377,0,0,1,721.653,157.007Z" transform="translate(260.177 52.436)" fill="none" stroke="#b08058" stroke-miterlimit="10" stroke-width="1"/>
      <path id="Path_144" data-name="Path 144" d="M686.172,148.522A19.377,19.377,0,1,1,666.8,129.145,19.377,19.377,0,0,1,686.172,148.522Z" transform="translate(246.659 49.203)" fill="none" stroke="#b08058" stroke-miterlimit="10" stroke-width="1"/>
      <path id="Path_145" data-name="Path 145" d="M650.482,141.092a19.377,19.377,0,1,1-19.377-19.377A19.377,19.377,0,0,1,650.482,141.092Z" transform="translate(233.062 46.372)" fill="none" stroke="#b08058" stroke-miterlimit="10" stroke-width="1"/>
      <path id="Path_146" data-name="Path 146" d="M614.437,135.465a19.377,19.377,0,1,1-19.377-19.377A19.377,19.377,0,0,1,614.437,135.465Z" transform="translate(219.329 44.228)" fill="none" stroke="#b08058" stroke-miterlimit="10" stroke-width="1"/>
      <path id="Path_147" data-name="Path 147" d="M578.315,130.461a19.377,19.377,0,1,1-19.377-19.377A19.377,19.377,0,0,1,578.315,130.461Z" transform="translate(205.567 42.322)" fill="none" stroke="#b08058" stroke-miterlimit="10" stroke-width="1"/>
      <path id="Path_148" data-name="Path 148" d="M541.975,127.244A19.377,19.377,0,1,1,522.6,107.867,19.377,19.377,0,0,1,541.975,127.244Z" transform="translate(191.722 41.096)" fill="none" stroke="#b08058" stroke-miterlimit="10" stroke-width="1"/>
      <path id="Path_149" data-name="Path 149" d="M505.636,124.026a19.377,19.377,0,1,1-19.377-19.377A19.378,19.378,0,0,1,505.636,124.026Z" transform="translate(177.877 39.87)" fill="none" stroke="#b08058" stroke-miterlimit="10" stroke-width="1"/>
      <path id="Path_150" data-name="Path 150" d="M469.17,122.962a19.377,19.377,0,1,1-19.378-19.377,19.377,19.377,0,0,1,19.378,19.377" transform="translate(163.984 39.465)" fill="#b08058"/>
      <path id="Path_151" data-name="Path 151" d="M432.7,121.919a19.377,19.377,0,1,1-19.377-19.377A19.377,19.377,0,0,1,432.7,121.919" transform="translate(150.09 39.067)" fill="#b08058"/>
      <path id="Path_152" data-name="Path 152" d="M396.236,122.148a19.377,19.377,0,1,1-19.377-19.377,19.377,19.377,0,0,1,19.377,19.377" transform="translate(136.197 39.155)" fill="#b08058"/>
      <path id="Path_153" data-name="Path 153" d="M359.769,123.192a19.377,19.377,0,1,1-19.377-19.377,19.377,19.377,0,0,1,19.377,19.377" transform="translate(122.303 39.552)" fill="#b08058"/>
      <path id="Path_154" data-name="Path 154" d="M323.331,124.734a19.377,19.377,0,1,1-19.377-19.377A19.377,19.377,0,0,1,323.331,124.734Z" transform="translate(108.421 40.14)" fill="none" stroke="#b08058" stroke-miterlimit="10" stroke-width="1"/>
      <path id="Path_155" data-name="Path 155" d="M286.991,127.951a19.377,19.377,0,1,1-19.377-19.377,19.377,19.377,0,0,1,19.377,19.377" transform="translate(94.575 41.366)" fill="#b08058"/>
      <path id="Path_156" data-name="Path 156" d="M250.652,131.168a19.377,19.377,0,1,1-19.378-19.377,19.377,19.377,0,0,1,19.378,19.377" transform="translate(80.731 42.591)" fill="#b08058"/>
      <path id="Path_157" data-name="Path 157" d="M214.595,136.7a19.377,19.377,0,1,1-19.377-19.377A19.377,19.377,0,0,1,214.595,136.7Z" transform="translate(66.993 44.7)" fill="none" stroke="#b08058" stroke-miterlimit="10" stroke-width="1"/>
      <path id="Path_158" data-name="Path 158" d="M178.55,142.328a19.377,19.377,0,1,1-19.377-19.377A19.378,19.378,0,0,1,178.55,142.328Z" transform="translate(53.26 46.843)" fill="none" stroke="#b08058" stroke-miterlimit="10" stroke-width="1"/>
      <path id="Path_159" data-name="Path 159" d="M142.984,150.387a19.377,19.377,0,1,1-19.377-19.378A19.377,19.377,0,0,1,142.984,150.387Z" transform="translate(39.71 49.913)" fill="none" stroke="#b08058" stroke-miterlimit="10" stroke-width="1"/>
      <path id="Path_160" data-name="Path 160" d="M107.5,158.872a19.377,19.377,0,1,1-19.377-19.377A19.377,19.377,0,0,1,107.5,158.872Z" transform="translate(26.192 53.146)" fill="none" stroke="#b08058" stroke-miterlimit="10" stroke-width="1"/>
      <path id="Path_161" data-name="Path 161" d="M73.049,170.83a19.377,19.377,0,1,1-19.377-19.377A19.377,19.377,0,0,1,73.049,170.83Z" transform="translate(13.066 57.702)" fill="none" stroke="#b08058" stroke-miterlimit="10" stroke-width="1"/>
      <path id="Path_162" data-name="Path 162" d="M39.255,184.35a19.377,19.377,0,1,1-19.377-19.377A19.377,19.377,0,0,1,39.255,184.35Z" transform="translate(0.19 62.853)" fill="none" stroke="#b08058" stroke-miterlimit="10" stroke-width="1"/>
      <path id="Path_163" data-name="Path 163" d="M792.94,219.532a19.377,19.377,0,1,1-19.377-19.377A19.377,19.377,0,0,1,792.94,219.532Z" transform="translate(287.337 76.257)" fill="none" stroke="#b08058" stroke-miterlimit="10" stroke-width="1"/>
      <path id="Path_164" data-name="Path 164" d="M759.5,205.061a19.377,19.377,0,1,1-19.377-19.377A19.377,19.377,0,0,1,759.5,205.061Z" transform="translate(274.597 70.744)" fill="none" stroke="#b08058" stroke-miterlimit="10" stroke-width="1"/>
      <path id="Path_165" data-name="Path 165" d="M724.949,193.511a19.377,19.377,0,1,1-19.377-19.377A19.377,19.377,0,0,1,724.949,193.511Z" transform="translate(261.433 66.343)" fill="none" stroke="#b08058" stroke-miterlimit="10" stroke-width="1"/>
      <path id="Path_166" data-name="Path 166" d="M689.809,183.762a19.377,19.377,0,1,1-19.377-19.377A19.377,19.377,0,0,1,689.809,183.762Z" transform="translate(248.045 62.629)" fill="none" stroke="#b08058" stroke-miterlimit="10" stroke-width="1"/>
      <path id="Path_167" data-name="Path 167" d="M654.073,176.425A19.377,19.377,0,1,1,634.7,157.047,19.377,19.377,0,0,1,654.073,176.425Z" transform="translate(234.43 59.833)" fill="none" stroke="#b08058" stroke-miterlimit="10" stroke-width="1"/>
      <path id="Path_168" data-name="Path 168" d="M618.146,170.2a19.377,19.377,0,1,1-19.377-19.377A19.377,19.377,0,0,1,618.146,170.2Z" transform="translate(220.742 57.462)" fill="none" stroke="#b08058" stroke-miterlimit="10" stroke-width="1"/>
      <path id="Path_169" data-name="Path 169" d="M582.006,165.217a19.377,19.377,0,1,1-19.377-19.377A19.378,19.378,0,0,1,582.006,165.217Z" transform="translate(206.973 55.564)" fill="none" stroke="#b08058" stroke-miterlimit="10" stroke-width="1"/>
      <path id="Path_170" data-name="Path 170" d="M545.725,161.529a19.377,19.377,0,1,1-19.377-19.377A19.377,19.377,0,0,1,545.725,161.529Z" transform="translate(193.15 54.158)" fill="none" stroke="#b08058" stroke-miterlimit="10" stroke-width="1"/>
      <path id="Path_171" data-name="Path 171" d="M509.359,158.629a19.377,19.377,0,1,1-19.377-19.377A19.377,19.377,0,0,1,509.359,158.629Z" transform="translate(179.295 53.054)" fill="none" stroke="#b08058" stroke-miterlimit="10" stroke-width="1"/>
      <path id="Path_172" data-name="Path 172" d="M472.928,156.945a19.377,19.377,0,1,1-19.377-19.377A19.378,19.378,0,0,1,472.928,156.945Z" transform="translate(165.415 52.412)" fill="none" stroke="#b08058" stroke-miterlimit="10" stroke-width="1"/>
      <path id="Path_175" data-name="Path 175" d="M363.519,156.958a19.377,19.377,0,1,1-19.378-19.377A19.378,19.378,0,0,1,363.519,156.958Z" transform="translate(123.732 52.417)" fill="none" stroke="#b08058" stroke-miterlimit="10" stroke-width="1"/>
      <path id="Path_176" data-name="Path 176" d="M327.09,158.669a19.377,19.377,0,1,1-19.377-19.377A19.377,19.377,0,0,1,327.09,158.669Z" transform="translate(109.853 53.069)" fill="none" stroke="#b08058" stroke-miterlimit="10" stroke-width="1"/>
      <path id="Path_177" data-name="Path 177" d="M290.724,161.569a19.377,19.377,0,1,1-19.377-19.377A19.377,19.377,0,0,1,290.724,161.569Z" transform="translate(95.998 54.174)" fill="none" stroke="#b08058" stroke-miterlimit="10" stroke-width="1"/>
      <path id="Path_178" data-name="Path 178" d="M254.446,165.287a19.377,19.377,0,1,1-19.377-19.377A19.377,19.377,0,0,1,254.446,165.287Z" transform="translate(82.176 55.59)" fill="none" stroke="#b08058" stroke-miterlimit="10" stroke-width="1"/>
      <path id="Path_179" data-name="Path 179" d="M218.306,170.27a19.377,19.377,0,1,1-19.377-19.377A19.377,19.377,0,0,1,218.306,170.27Z" transform="translate(68.407 57.489)" fill="none" stroke="#b08058" stroke-miterlimit="10" stroke-width="1"/>
      <path id="Path_180" data-name="Path 180" d="M182.385,176.527a19.377,19.377,0,1,1-19.378-19.378A19.378,19.378,0,0,1,182.385,176.527Z" transform="translate(54.722 59.872)" fill="none" stroke="#b08058" stroke-miterlimit="10" stroke-width="1"/>
      <path id="Path_181" data-name="Path 181" d="M146.648,183.864a19.377,19.377,0,1,1-19.377-19.377A19.377,19.377,0,0,1,146.648,183.864Z" transform="translate(41.106 62.668)" fill="none" stroke="#b08058" stroke-miterlimit="10" stroke-width="1"/>
      <path id="Path_182" data-name="Path 182" d="M111.518,193.653A19.377,19.377,0,1,1,92.14,174.276,19.377,19.377,0,0,1,111.518,193.653Z" transform="translate(27.722 66.397)" fill="none" stroke="#b08058" stroke-miterlimit="10" stroke-width="1"/>
      <path id="Path_183" data-name="Path 183" d="M76.983,205.254a19.377,19.377,0,1,1-19.377-19.377A19.378,19.378,0,0,1,76.983,205.254Z" transform="translate(14.564 70.817)" fill="none" stroke="#b08058" stroke-miterlimit="10" stroke-width="1"/>
      <path id="Path_184" data-name="Path 184" d="M43.582,219.8A19.377,19.377,0,1,1,24.2,200.419,19.377,19.377,0,0,1,43.582,219.8Z" transform="translate(1.839 76.358)" fill="none" stroke="#b08058" stroke-miterlimit="10" stroke-width="1"/>
    </g>
  </g>
</svg>
